<svg width="280" height="84" viewBox="0 0 280 84" fill="none" xmlns="http://www.w3.org/2000/svg">
  <rect x="1" y="1" width="278" height="82" rx="14" fill="#0B1120" stroke="#334155" />
  <circle cx="42" cy="42" r="25" fill="#1E293B" stroke="#94A3B8" stroke-width="1.5"/>
  <path d="M42 22L47.8 29.5L56.5 31.1L51 38.2L51.6 47.1L42 43.8L32.4 47.1L33 38.2L27.5 31.1L36.2 29.5L42 22Z" fill="#F59E0B"/>
  <path d="M42 27.5C49.4 27.5 55.4 33.6 55.4 41C55.4 48.4 49.4 54.5 42 54.5" stroke="#F97316" stroke-width="2" stroke-linecap="round"/>
  <path d="M42 54.5C34.6 54.5 28.6 48.4 28.6 41C28.6 33.6 34.6 27.5 42 27.5" stroke="#38BDF8" stroke-width="2" stroke-linecap="round"/>
  <path d="M53.7 39.4L56.4 41L53.8 42.8" stroke="#F97316" stroke-width="2" stroke-linecap="round" stroke-linejoin="round"/>
  <path d="M30.2 42.7L27.6 41L30.2 39.3" stroke="#38BDF8" stroke-width="2" stroke-linecap="round" stroke-linejoin="round"/>
  <text x="80" y="36" fill="#F8FAFC" font-size="17" font-weight="700" font-family="Segoe UI, Arial, sans-serif">Baglamukhi</text>
  <text x="80" y="56" fill="#CBD5E1" font-size="15" font-weight="600" font-family="Segoe UI, Arial, sans-serif">Enterprises</text>
</svg>
