<svg width="780" height="440" viewBox="0 0 780 440" fill="none" xmlns="http://www.w3.org/2000/svg">
  <defs>
    <linearGradient id="bg" x1="390" y1="0" x2="390" y2="440" gradientUnits="userSpaceOnUse">
      <stop stop-color="#111827"/>
      <stop offset="1" stop-color="#020617"/>
    </linearGradient>
    <linearGradient id="pile" x1="0" y1="320" x2="780" y2="440" gradientUnits="userSpaceOnUse">
      <stop stop-color="#334155"/>
      <stop offset="1" stop-color="#0F172A"/>
    </linearGradient>
  </defs>
  <rect width="780" height="440" fill="url(#bg)"/>
  <circle cx="652" cy="90" r="68" fill="#1D4ED8" fill-opacity="0.2"/>
  <circle cx="130" cy="80" r="52" fill="#F97316" fill-opacity="0.16"/>
  <rect x="32" y="286" width="716" height="132" rx="18" fill="url(#pile)"/>
  <rect x="64" y="236" width="104" height="24" rx="6" fill="#64748B"/>
  <rect x="190" y="248" width="126" height="24" rx="6" fill="#94A3B8"/>
  <rect x="334" y="232" width="146" height="26" rx="6" fill="#475569"/>
  <rect x="498" y="246" width="112" height="24" rx="6" fill="#CBD5E1"/>
  <rect x="630" y="236" width="78" height="24" rx="6" fill="#64748B"/>
  <circle cx="205" cy="322" r="24" fill="#B45309"/>
  <circle cx="252" cy="320" r="24" fill="#F97316"/>
  <circle cx="299" cy="322" r="24" fill="#EA580C"/>
  <rect x="438" y="302" width="112" height="38" rx="10" fill="#94A3B8"/>
  <rect x="560" y="302" width="96" height="38" rx="10" fill="#64748B"/>
  <path d="M48 286L48 188L92 188L92 286" stroke="#475569" stroke-width="8"/>
  <path d="M688 286L688 174L732 174L732 286" stroke="#475569" stroke-width="8"/>
  <path d="M92 198H176" stroke="#64748B" stroke-width="8"/>
  <path d="M604 184H688" stroke="#64748B" stroke-width="8"/>
  <path d="M176 198L152 222" stroke="#64748B" stroke-width="6"/>
  <path d="M604 184L580 208" stroke="#64748B" stroke-width="6"/>
  <text x="42" y="46" fill="#E2E8F0" font-size="20" font-family="Segoe UI, Arial, sans-serif" font-weight="700">
    Ferrous & Non-Ferrous Scrap Yard
  </text>
</svg>
